<svg width="30" height="30" viewBox="0 0 30 30" fill="none" xmlns="http://www.w3.org/2000/svg">
<g clip-path="url(#clip0_113_1635)">
<path d="M21.0053 10.3448C21.7509 10.3448 22.3553 9.74036 22.3553 8.99478C22.3553 8.24919 21.7509 7.64478 21.0053 7.64478C20.2597 7.64478 19.6553 8.24919 19.6553 8.99478C19.6553 9.74036 20.2597 10.3448 21.0053 10.3448Z" fill="white"/>
<path d="M15 9.2229C13.8574 9.2229 12.7404 9.56172 11.7904 10.1965C10.8404 10.8313 10.0999 11.7336 9.66266 12.7892C9.2254 13.8448 9.111 15.0064 9.33391 16.127C9.55682 17.2477 10.107 18.277 10.915 19.085C11.7229 19.8929 12.7523 20.4431 13.8729 20.666C14.9936 20.8889 16.1551 20.7745 17.2108 20.3373C18.2664 19.9 19.1686 19.1596 19.8034 18.2095C20.4382 17.2595 20.777 16.1426 20.777 15C20.777 13.4678 20.1684 11.9984 19.085 10.915C18.0016 9.83155 16.5321 9.2229 15 9.2229ZM15 18.75C14.2583 18.75 13.5333 18.53 12.9166 18.118C12.2999 17.7059 11.8192 17.1202 11.5354 16.435C11.2516 15.7498 11.1773 14.9958 11.322 14.2684C11.4667 13.5409 11.8239 12.8728 12.3483 12.3483C12.8728 11.8239 13.5409 11.4667 14.2684 11.322C14.9958 11.1773 15.7498 11.2516 16.435 11.5354C17.1203 11.8192 17.7059 12.2999 18.118 12.9166C18.53 13.5333 18.75 14.2583 18.75 15C18.75 15.9945 18.3549 16.9484 17.6516 17.6516C16.9484 18.3549 15.9945 18.75 15 18.75Z" fill="white"/>
<path d="M15 5.77706C18.0038 5.77706 18.3597 5.7885 19.5459 5.84269C20.2593 5.85118 20.966 5.98221 21.635 6.23006C22.1201 6.41727 22.5607 6.70394 22.9284 7.07166C23.2961 7.43937 23.5828 7.87997 23.77 8.36513C24.0179 9.03413 24.1489 9.74076 24.1574 10.4542C24.2115 11.6404 24.223 11.9962 24.223 15.0001C24.223 18.0039 24.2116 18.3598 24.1574 19.546C24.1489 20.2594 24.0179 20.9661 23.77 21.6351C23.5828 22.1202 23.2961 22.5608 22.9284 22.9285C22.5607 23.2962 22.1201 23.5829 21.635 23.7701C20.966 24.018 20.2593 24.149 19.5459 24.1575C18.3598 24.2116 18.0041 24.2231 15 24.2231C11.9959 24.2231 11.6402 24.2117 10.4541 24.1575C9.74067 24.149 9.03404 24.018 8.36503 23.7701C7.87987 23.5829 7.43927 23.2962 7.07156 22.9285C6.70385 22.5608 6.41717 22.1202 6.22997 21.6351C5.98212 20.9661 5.85109 20.2594 5.84259 19.546C5.7885 18.3598 5.77697 18.0039 5.77697 15.0001C5.77697 11.9962 5.78841 11.6404 5.84259 10.4542C5.85109 9.74076 5.98212 9.03413 6.22997 8.36513C6.41716 7.87995 6.70383 7.43933 7.07155 7.0716C7.43926 6.70388 7.87987 6.41718 8.36503 6.22997C9.03404 5.98212 9.74067 5.85109 10.4541 5.84259C11.6403 5.7885 11.9962 5.77706 15 5.77706ZM15 3.75C11.9447 3.75 11.5615 3.76294 10.3616 3.81769C9.42848 3.83642 8.50528 4.01324 7.63125 4.34063C6.88381 4.62967 6.20501 5.07169 5.63835 5.63835C5.07169 6.20501 4.62967 6.88381 4.34063 7.63125C4.01319 8.50542 3.83637 9.4288 3.81769 10.3621C3.76294 11.5615 3.75 11.9447 3.75 15C3.75 18.0553 3.76294 18.4385 3.81769 19.6384C3.83638 20.5717 4.0132 21.495 4.34063 22.3692C4.62967 23.1167 5.07169 23.7955 5.63835 24.3621C6.20501 24.9288 6.88381 25.3708 7.63125 25.6598C8.50542 25.9873 9.4288 26.1641 10.3621 26.1828C11.5615 26.2371 11.9447 26.25 15 26.25C18.0553 26.25 18.4385 26.2371 19.6384 26.1823C20.5717 26.1636 21.495 25.9868 22.3692 25.6594C23.1167 25.3703 23.7955 24.9283 24.3621 24.3617C24.9288 23.795 25.3708 23.1162 25.6598 22.3688C25.9873 21.4946 26.1641 20.5712 26.1828 19.6379C26.2371 18.4385 26.25 18.0553 26.25 15C26.25 11.9447 26.2371 11.5615 26.1823 10.3616C26.1636 9.42848 25.9868 8.50528 25.6594 7.63125C25.3703 6.8839 24.9282 6.20519 24.3616 5.63861C23.7949 5.07203 23.1161 4.63009 22.3688 4.34109C21.4946 4.01367 20.5712 3.83685 19.6379 3.81816C18.4385 3.76294 18.0553 3.75 15 3.75Z" fill="white"/>
</g>
<defs>
<clipPath id="clip0_113_1635">
<rect width="30" height="30" fill="white"/>
</clipPath>
</defs>
</svg>
